<svg width="14" height="15" viewBox="0 0 14 15" fill="none" xmlns="http://www.w3.org/2000/svg">
<path d="M7 0.84375C7.91667 0.84375 8.77083 1.02083 9.5625 1.375C10.375 1.70833 11.0833 2.1875 11.6875 2.8125C12.3125 3.41667 12.7917 4.125 13.125 4.9375C13.4792 5.72917 13.6562 6.58333 13.6562 7.5C13.6562 8.41667 13.4792 9.28125 13.125 10.0938C12.7917 10.8854 12.3125 11.5938 11.6875 12.2188C11.0833 12.8229 10.375 13.3021 9.5625 13.6562C8.77083 13.9896 7.91667 14.1562 7 14.1562C6.08333 14.1562 5.21875 13.9896 4.40625 13.6562C3.61458 13.3021 2.90625 12.8229 2.28125 12.2188C1.67708 11.5938 1.19792 10.8854 0.84375 10.0938C0.510417 9.28125 0.34375 8.41667 0.34375 7.5C0.34375 6.58333 0.510417 5.72917 0.84375 4.9375C1.19792 4.125 1.67708 3.41667 2.28125 2.8125C2.90625 2.1875 3.61458 1.70833 4.40625 1.375C5.21875 1.02083 6.08333 0.84375 7 0.84375ZM7.59375 11.3438C7.67708 11.3229 7.82292 11.2812 8.03125 11.2188C8.26042 11.1562 8.48958 11.0521 8.71875 10.9062C8.96875 10.7604 9.17708 10.5521 9.34375 10.2812C9.51042 9.98958 9.59375 9.625 9.59375 9.1875C9.59375 8.72917 9.45833 8.30208 9.1875 7.90625C8.91667 7.51042 8.38542 7.17708 7.59375 6.90625C7.01042 6.69792 6.57292 6.51042 6.28125 6.34375C5.98958 6.17708 5.84375 5.9375 5.84375 5.625C5.84375 5.39583 5.90625 5.21875 6.03125 5.09375C6.17708 4.94792 6.34375 4.84375 6.53125 4.78125C6.71875 4.71875 6.88542 4.6875 7.03125 4.6875C7.32292 4.6875 7.55208 4.75 7.71875 4.875C7.90625 5 8.04167 5.13542 8.125 5.28125C8.22917 5.40625 8.29167 5.51042 8.3125 5.59375L9.375 5.15625C9.33333 5.05208 9.25 4.89583 9.125 4.6875C9 4.47917 8.8125 4.28125 8.5625 4.09375C8.3125 3.88542 7.98958 3.73958 7.59375 3.65625V2.84375H6.40625V3.6875C5.98958 3.77083 5.65625 3.91667 5.40625 4.125C5.17708 4.33333 5.01042 4.55208 4.90625 4.78125C4.80208 5.01042 4.73958 5.20833 4.71875 5.375C4.69792 5.54167 4.6875 5.63542 4.6875 5.65625C4.6875 6.03125 4.76042 6.34375 4.90625 6.59375C5.07292 6.84375 5.27083 7.05208 5.5 7.21875C5.75 7.38542 6 7.52083 6.25 7.625C6.5 7.70833 6.71875 7.78125 6.90625 7.84375C7.42708 8.03125 7.8125 8.22917 8.0625 8.4375C8.3125 8.625 8.4375 8.88542 8.4375 9.21875C8.4375 9.59375 8.29167 9.86458 8 10.0312C7.70833 10.1979 7.40625 10.2812 7.09375 10.2812C6.80208 10.2812 6.55208 10.2188 6.34375 10.0938C6.13542 9.96875 5.96875 9.82292 5.84375 9.65625C5.73958 9.46875 5.65625 9.30208 5.59375 9.15625C5.55208 9.01042 5.52083 8.91667 5.5 8.875L4.40625 9.34375C4.55208 9.82292 4.75 10.1979 5 10.4688C5.25 10.7396 5.51042 10.9375 5.78125 11.0625C6.05208 11.1875 6.26042 11.2708 6.40625 11.3125V12.1562H7.59375V11.3438Z" fill="#F5F5F5"/>
</svg>
