<svg width="24" height="24" viewBox="0 0 24 24" fill="none" xmlns="http://www.w3.org/2000/svg">
<path d="M21.3125 0C22.0625 0 22.6875 0.270833 23.1875 0.8125C23.7292 1.3125 24 1.9375 24 2.6875V21.3125C24 22.0625 23.7292 22.7083 23.1875 23.25C22.6875 23.75 22.0625 24 21.3125 24H2.6875C1.9375 24 1.29167 23.75 0.75 23.25C0.25 22.7083 0 22.0625 0 21.3125V2.6875C0 1.9375 0.25 1.3125 0.75 0.8125C1.29167 0.270833 1.9375 0 2.6875 0H21.3125ZM8 18.6875V12H5.3125V18.6875H8ZM13.3125 18.6875V14.6875H10.6875V18.6875H13.3125ZM13.3125 12V9.3125H10.6875V12H13.3125ZM18.6875 18.6875V5.3125H16V18.6875H18.6875Z" fill="#D6FF62"/>
</svg>
